<?xml version='1.0' encoding='UTF-8'?>
<svg xmlns="http://www.w3.org/2000/svg" version="1.1" id="svg2" viewBox="0 0 9108.667 7823.6265">
  <defs id="defs6">
    <clipPath clipPathUnits="userSpaceOnUse" id="clipPath18">
      <path d="M 0,5867.716 H 6831.496 V 0 H 0 Z" id="path16" />
    </clipPath>
    <clipPath clipPathUnits="userSpaceOnUse" id="clipPath28">
      <path d="M 0,5867.716 H 6831.496 V 0 H 0 Z" id="path26" />
    </clipPath>
  </defs>
  <g id="g8" transform="matrix(1.3333333,0,0,-1.3333333,0,7823.6267)">
    <g id="g12">
      <g id="g14" clip-path="url(#clipPath18)">
        </g>
    </g>
    <g id="g22">
      <g id="g24" clip-path="url(#clipPath28)">
        <g id="g30" transform="translate(6419.4038,3690.8367)">
          <path d="M 0,0 C -83.361,-14.205 -166.821,-27.826 -250.375,-40.852 -337.212,-54.39 -424.15,-67.29 -511.177,-79.55 c -22.261,-3.137 -44.53,-6.231 -66.802,-9.283 -11.474,-1.573 -22.948,-3.134 -34.424,-4.684 -10.663,-1.441 -18.727,-2.522 -30.601,-4.102 -45.573,-6.066 -91.169,-11.956 -136.788,-17.672 -93.583,-11.725 -187.259,-22.713 -281.016,-32.963 -96.833,-10.586 -193.752,-20.386 -290.743,-29.398 -100.007,-9.292 -200.091,-17.747 -300.239,-25.363 -103.105,-7.842 -206.276,-14.795 -309.501,-20.86 -106.126,-6.235 -212.309,-11.531 -318.529,-15.886 -109.074,-4.472 -218.189,-7.954 -327.326,-10.443 -111.946,-2.553 -223.915,-4.064 -335.889,-4.531 -112.794,-0.47 -225.593,0.119 -338.376,1.766 -109.756,1.603 -219.497,4.208 -329.206,7.816 -107.209,3.526 -214.386,8.01 -321.515,13.45 -103.959,5.279 -207.872,11.459 -311.723,18.539 -101.237,6.902 -202.415,14.66 -303.519,23.273 -98.126,8.359 -196.184,17.524 -294.16,27.492 -94.937,9.659 -189.797,20.075 -284.568,31.245 -91.668,10.804 -183.253,22.315 -274.744,34.531 -2.612,0.349 -5.225,0.698 -7.837,1.048 -1.567,0.21 -3.132,0.42 -4.699,0.63 2.223,-0.298 -0.398,0.054 -0.707,0.095 -6.251,0.841 -12.501,1.685 -18.751,2.533 -10.9,1.477 -21.799,2.965 -32.696,4.463 -22.164,3.047 -44.323,6.135 -66.477,9.265 -43.704,6.174 -87.385,12.509 -131.043,19.005 -84.873,12.63 -169.656,25.869 -254.34,39.716 -39.684,6.489 -79.345,13.113 -118.984,19.868 -7.706,1.313 -16.53,-2.038 -18.452,-10.477 -1.655,-7.267 2.206,-17.042 10.477,-18.451 83.247,-14.186 166.593,-27.789 250.031,-40.799 86.735,-13.524 173.569,-26.411 260.493,-38.659 90.677,-12.778 181.451,-24.877 272.31,-36.286 93.179,-11.7 186.449,-22.67 279.8,-32.908 96.42,-10.575 192.925,-20.369 289.504,-29.383 99.586,-9.295 199.249,-17.758 298.977,-25.392 102.677,-7.858 205.421,-14.836 308.217,-20.933 105.692,-6.269 211.439,-11.604 317.225,-16.008 108.952,-4.536 217.946,-8.082 326.962,-10.64 111.834,-2.623 223.692,-4.204 335.555,-4.745 113.02,-0.546 226.045,-0.03 339.056,1.551 110.499,1.545 220.985,4.106 331.437,7.682 107.621,3.486 215.211,7.936 322.752,13.35 104.663,5.27 209.28,11.452 313.834,18.547 101.625,6.897 203.191,14.656 304.683,23.275 98.507,8.366 196.945,17.545 295.3,27.533 95.581,9.708 191.085,20.181 286.499,31.419 92.285,10.869 184.486,22.454 276.592,34.755 89.479,11.95 178.872,24.537 268.164,37.817 85.239,12.676 170.388,25.966 255.436,39.871 39.857,6.516 79.691,13.169 119.504,19.953 7.991,1.361 12.468,11.201 10.476,18.451 C 16.127,-2.018 8.015,1.366 0,0" style="fill:currentColor;fill-opacity:1;fill-rule:nonzero;stroke:none" id="path32" />
        </g>
        <g id="g34" transform="translate(383.0236,2183.2896)">
          <path d="m 0,0 c 83.001,14.143 166.1,27.708 249.292,40.683 86.469,13.486 173.036,26.339 259.693,38.558 22.168,3.126 44.342,6.21 66.521,9.253 22.765,3.123 43.834,5.971 64.735,8.756 45.383,6.048 90.789,11.922 136.217,17.622 93.197,11.695 186.487,22.658 279.856,32.889 96.439,10.568 192.963,20.355 289.56,29.362 99.604,9.286 199.286,17.742 299.031,25.367 102.695,7.85 205.456,14.818 308.271,20.906 105.709,6.258 211.473,11.585 317.277,15.978 108.649,4.511 217.339,8.04 326.052,10.584 111.514,2.609 223.051,4.184 334.594,4.723 113.02,0.546 226.046,0.029 339.056,-1.551 110.182,-1.54 220.351,-4.091 330.487,-7.652 107.629,-3.48 215.227,-7.925 322.777,-13.334 104.372,-5.249 208.697,-11.407 312.961,-18.472 101.642,-6.887 203.226,-14.637 304.737,-23.248 98.525,-8.359 196.981,-17.529 295.355,-27.51 95.328,-9.672 190.578,-20.107 285.739,-31.301 92.052,-10.829 184.019,-22.371 275.892,-34.624 41.389,-5.52 87.821,-11.894 131.737,-18.093 43.89,-6.195 87.758,-12.552 131.601,-19.072 85.24,-12.676 170.388,-25.967 255.436,-39.871 39.857,-6.516 79.691,-13.169 119.503,-19.953 7.706,-1.313 16.53,2.038 18.453,10.477 1.655,7.267 -2.206,17.042 -10.477,18.451 -83.608,14.247 -167.316,27.907 -251.118,40.968 -87.105,13.576 -174.31,26.51 -261.606,38.8 -91.052,12.82 -182.202,24.955 -273.438,36.393 -93.565,11.731 -187.221,22.726 -280.959,32.983 -96.814,10.593 -193.714,20.4 -290.688,29.42 -99.988,9.3 -200.054,17.763 -300.184,25.388 -103.087,7.851 -206.241,14.813 -309.447,20.887 -106.11,6.246 -212.275,11.551 -318.478,15.917 -109.378,4.496 -218.797,7.995 -328.239,10.498 -112.267,2.567 -224.558,4.084 -336.853,4.553 -112.795,0.47 -225.594,-0.118 -338.377,-1.766 -110.072,-1.608 -220.129,-4.224 -330.153,-7.848 -107.2,-3.531 -214.369,-8.02 -321.489,-13.465 -104.249,-5.299 -208.453,-11.504 -312.594,-18.615 -101.218,-6.911 -202.378,-14.677 -303.465,-23.298 -98.107,-8.367 -196.147,-17.539 -294.104,-27.515 C 1097.975,182.533 1002.863,172.079 907.84,160.866 815.939,150.022 724.121,138.467 632.398,126.204 543.292,114.29 454.27,101.744 365.349,88.512 280.476,75.882 195.693,62.643 111.009,48.796 71.326,42.307 31.664,35.683 -7.975,28.928 -15.967,27.566 -20.444,17.727 -18.452,10.477 -16.127,2.018 -8.015,-1.366 0,0" style="fill:currentColor;fill-opacity:1;fill-rule:nonzero;stroke:none" id="path36" />
        </g>
        <g id="g38" transform="translate(2624.7104,3791.2776)">
          <path d="m 0,0 v -125.156 c 0,-15.189 1.146,-27.446 3.439,-36.757 2.292,-9.316 6.059,-17.214 11.299,-23.694 11.134,-13.569 30.239,-20.353 57.312,-20.353 35.151,0 62.929,8.91 83.348,26.732 20.414,17.816 30.622,42.119 30.622,72.906 0,17.619 -3.166,33.973 -9.498,49.06 -6.337,15.083 -14.852,26.682 -25.545,34.783 C 131.327,-7.493 100.542,0 58.622,0 Z M 0,189.86 V 9.417 h 26.527 c 12.445,0 25.327,0.805 38.645,2.43 11.572,1.62 20.906,3.539 28.002,5.772 7.09,2.228 13.591,5.266 19.486,9.113 11.135,7.696 19.699,17.569 25.708,29.618 6.005,12.045 9.007,25.366 9.007,39.947 0,15.386 -3.112,30.023 -9.334,43.896 -6.223,13.867 -14.465,24.651 -24.726,32.352 -8.957,6.683 -19.159,11.24 -30.621,13.67 -11.463,2.43 -28.875,3.645 -52.236,3.645 z m -140.497,-405.237 v 6.986 c 12.658,0.608 22.87,2.279 30.621,5.013 7.745,2.734 14.574,6.936 20.469,12.607 6.986,6.48 11.675,14.682 14.082,24.605 2.402,9.919 3.603,25.315 3.603,46.174 v 223.883 c 0,20.855 -1.201,36.251 -3.603,46.174 -2.407,9.919 -7.096,18.121 -14.082,24.606 -5.895,5.873 -12.773,10.126 -20.633,12.759 -7.86,2.628 -18.012,4.253 -30.457,4.86 v 6.987 H 74.67 c 21.828,0 36.134,-0.202 42.902,-0.607 24.89,-1.823 45.522,-7.291 61.897,-16.404 14.192,-8.101 25.163,-18.733 32.914,-31.897 7.746,-13.169 11.627,-27.947 11.627,-44.351 0,-26.535 -8.843,-48.3 -26.528,-65.312 -6.337,-6.278 -13.542,-11.498 -21.615,-15.644 -8.078,-4.152 -19.764,-8.764 -35.042,-13.822 20.96,-3.241 37.22,-6.79 48.797,-10.633 11.572,-3.847 22.052,-9.219 31.44,-16.1 13.968,-10.531 24.835,-23.649 32.586,-39.339 7.751,-15.695 11.626,-32.656 11.626,-50.882 0,-18.429 -3.984,-35.289 -11.953,-50.579 -7.975,-15.295 -19.05,-27.598 -33.242,-36.909 -12.887,-8.308 -28.219,-14.08 -46.013,-17.315 -17.8,-3.24 -42.853,-4.86 -75.161,-4.86 z" style="fill:currentColor;fill-opacity:1;fill-rule:nonzero;stroke:none" id="path40" />
        </g>
        <g id="g42" transform="translate(3100.2393,3725.0542)">
          <path d="m 0,0 c -11.757,-9.113 -24.704,-17.118 -38.852,-23.998 -15.884,-7.898 -26.877,-13.873 -32.969,-17.923 -6.102,-4.055 -11.648,-8.916 -16.648,-14.581 -10.239,-11.746 -15.348,-25.416 -15.348,-41.01 0,-13.366 3.973,-24.408 11.91,-33.112 7.947,-8.708 18.012,-13.062 30.206,-13.062 10.666,0 20.731,3.083 30.196,9.265 9.464,6.177 16.593,14.43 21.385,24.758 C -3.373,-96.1 0,-76.45 0,-50.73 Z m 108.402,-119.688 5.568,-3.038 c -7.86,-21.264 -25.873,-31.896 -54.038,-31.896 -15.523,0 -28.427,3.544 -38.699,10.632 -6.779,4.658 -13.777,12.759 -20.993,24.302 -14.65,-12.151 -25.698,-20.155 -33.132,-23.998 -14.213,-7.291 -30.719,-10.936 -49.518,-10.936 -24.06,0 -43.131,5.367 -57.236,16.1 -14.104,10.733 -21.156,25.214 -21.156,43.44 0,16.809 5.786,30.879 17.357,42.225 6.55,6.273 14.083,11.285 22.598,15.037 8.515,3.747 20.851,7.544 37.007,11.392 18.995,4.45 33.023,8.201 42.084,11.239 9.061,3.038 16.648,6.683 22.761,10.936 6.987,4.658 11.79,10.126 14.41,16.404 2.62,6.273 3.93,14.986 3.93,26.125 0,23.694 -4.803,41.01 -14.41,51.946 -4.367,5.058 -9.989,9.113 -16.866,12.151 -6.878,3.037 -14.028,4.556 -21.451,4.556 -8.952,0 -16.921,-2.126 -23.908,-6.379 -6.986,-4.253 -12.226,-10.131 -15.72,-17.619 l -8.187,-17.619 c -4.367,-9.523 -12.227,-14.278 -23.58,-14.278 -7.423,0 -13.646,2.279 -18.668,6.835 -5.021,4.557 -7.532,10.278 -7.532,17.164 0,10.328 7.871,19.031 23.623,26.125 8.526,3.645 19.072,6.632 31.648,8.961 12.576,2.324 24.879,3.493 36.909,3.493 13.558,0 27.663,-1.625 42.313,-4.86 14.65,-3.24 26.899,-7.397 36.745,-12.455 14.214,-7.493 23.067,-17.214 26.572,-29.162 1.746,-6.076 2.619,-16.303 2.619,-30.682 V -75.944 c 0,-19.037 0.874,-32.003 2.621,-38.883 3.711,-14.384 12.663,-21.569 26.854,-21.569 6.769,0 12.063,1.109 15.884,3.342 3.821,2.228 8.351,6.683 13.591,13.366" style="fill:currentColor;fill-opacity:1;fill-rule:nonzero;stroke:none" id="path44" />
        </g>
        <g id="g46" transform="translate(3308.2012,3791.9255)">
          <path d="m 0,0 c 7.86,12.749 16.703,22.358 26.528,28.833 18.121,11.939 38.753,17.908 61.897,17.908 14.197,0 25.004,-2.936 32.428,-8.804 6.768,-5.261 10.152,-11.736 10.152,-19.422 0,-5.67 -2.019,-10.323 -6.058,-13.963 -4.04,-3.646 -9.225,-5.463 -15.557,-5.463 -7.423,0 -13.869,2.825 -19.327,8.495 L 79.91,17.897 C 71.832,25.786 62.334,29.73 51.417,29.73 36.571,29.73 24.999,20.829 16.703,3.033 8.406,-14.769 4.258,-39.547 4.258,-71.301 v -56.736 l 0.327,-23.056 c 0,-13.756 0.873,-23.816 2.62,-30.19 1.747,-6.37 5.131,-11.681 10.153,-15.924 6.113,-5.462 17.357,-9.609 33.732,-12.439 v -6.379 H -93.665 v 6.379 c 13.1,1.61 22.489,3.873 28.165,6.794 5.677,2.927 10.262,7.914 13.755,14.967 2.402,4.632 4.094,11.634 5.077,21.006 0.982,9.371 1.473,22.92 1.473,40.655 v 74.653 c 0,20.748 -0.546,35.309 -1.637,43.673 -1.092,8.359 -3.494,15.158 -7.205,20.398 -3.712,5.641 -8.188,9.721 -13.428,12.243 -5.24,2.516 -12.772,4.075 -22.597,4.683 v 6.379 L -5.633,46.741 C -1.877,28.56 0,12.981 0,0" style="fill:currentColor;fill-opacity:1;fill-rule:nonzero;stroke:none" id="path48" />
        </g>
        <g id="g50" transform="translate(3543.6787,3708.4934)">
          <path d="m 0,0 c 0,-21.644 1.31,-41.572 3.919,-59.773 2.609,-18.206 5.971,-31.456 10.109,-39.749 5,-9.908 12.445,-17.695 22.335,-23.361 9.902,-5.665 21.146,-8.495 33.765,-8.495 26.528,0 48.438,11.731 65.719,35.197 17.292,23.462 25.938,53.298 25.938,89.503 0,19.016 -2.828,37.066 -8.483,54.158 -5.655,17.093 -13.7,31.608 -24.136,43.547 -8.264,9.908 -17.402,17.442 -27.401,22.6 -10,5.154 -20.218,7.737 -30.654,7.737 -12.62,0 -24.366,-3.595 -35.228,-10.774 C 25.01,103.406 16.964,94.054 11.746,82.526 3.919,65.535 0,38.023 0,0 m 0,91.933 c 9.159,10.515 17.871,18.307 26.156,23.37 16.79,9.908 36.844,14.87 60.173,14.87 33.132,0 62.028,-9.812 86.656,-29.431 30.523,-24.074 45.784,-58.061 45.784,-101.957 0,-43.896 -14.628,-78.486 -43.884,-103.775 -25.327,-22.049 -57.75,-33.071 -97.268,-33.071 -20.741,0 -38.317,2.633 -52.727,7.893 l -18.34,6.977 c -5.022,1.822 -9.498,2.733 -13.427,2.733 -11.135,0 -20.96,-8.399 -29.476,-25.198 h -13.099 v 356.33 c 0,22.677 -3.876,38.929 -11.627,48.756 -7.75,9.822 -20.796,14.733 -39.136,14.733 v 7.291 L 0,294.212 Z" style="fill:currentColor;fill-opacity:1;fill-rule:nonzero;stroke:none" id="path52" />
        </g>
        <g id="g54" transform="translate(4003.4875,3753.0017)">
          <path d="m 0,0 c -1.528,20.247 -5.546,35.846 -12.063,46.781 -5.862,9.919 -13.689,17.771 -23.471,23.543 -9.781,5.772 -20.217,8.658 -31.298,8.658 -18.689,0 -35.042,-7.493 -49.059,-22.48 C -129.919,41.511 -138.227,22.677 -140.835,0 Z m -142.79,-11.847 c -0.873,-9.924 -1.31,-17.118 -1.31,-21.568 0,-17.619 2.773,-34.833 8.319,-51.642 5.545,-16.814 13.111,-30.788 22.685,-41.922 9.792,-11.345 21.92,-20.251 36.396,-26.732 14.475,-6.486 29.649,-9.721 45.533,-9.721 11.746,0 22.892,1.823 33.448,5.468 10.557,3.646 19.312,8.704 26.277,15.189 7.838,7.088 14.585,18.424 20.239,34.023 l 6.878,-2.126 c -5.677,-23.695 -17.849,-41.572 -36.516,-53.617 -18.668,-12.05 -43.503,-18.075 -74.506,-18.075 -26.855,0 -49.889,3.95 -69.103,11.848 -19.213,7.898 -35.479,20.049 -48.797,36.453 -18.558,22.884 -27.837,51.034 -27.837,84.45 0,45.566 17.575,81.305 52.727,107.233 25.545,18.834 54.692,28.251 87.442,28.251 17.467,0 33.623,-2.886 48.47,-8.658 C 2.402,71.236 14.956,62.882 25.218,51.946 41.156,34.934 49.125,13.67 49.125,-11.847 Z" style="fill:currentColor;fill-opacity:1;fill-rule:nonzero;stroke:none" id="path56" />
        </g>
        <g id="g58" transform="translate(4187.2148,3791.9255)">
          <path d="m 0,0 c 7.86,12.749 16.702,22.358 26.527,28.833 18.122,11.939 38.754,17.908 61.898,17.908 14.191,0 24.999,-2.936 32.422,-8.804 C 127.615,32.676 131,26.201 131,18.515 c 0,-5.67 -2.02,-10.323 -6.059,-13.963 -4.04,-3.646 -9.225,-5.463 -15.557,-5.463 -7.423,0 -13.863,2.825 -19.322,8.495 L 79.91,17.897 C 71.831,25.786 62.334,29.73 51.417,29.73 36.57,29.73 24.999,20.829 16.702,3.033 8.405,-14.769 4.257,-39.547 4.257,-71.301 v -56.736 l 0.328,-23.056 c 0,-13.756 0.873,-23.816 2.62,-30.19 1.747,-6.37 5.13,-11.681 10.152,-15.924 6.114,-5.462 17.358,-9.609 33.733,-12.439 v -6.379 H -93.665 v 6.379 c 13.1,1.61 22.488,3.873 28.165,6.794 5.677,2.927 10.262,7.914 13.755,14.967 2.402,4.632 4.094,11.634 5.076,21.006 0.982,9.371 1.474,22.92 1.474,40.655 v 74.653 c 0,20.748 -0.546,35.309 -1.638,43.673 -1.091,8.359 -3.493,15.158 -7.205,20.398 -3.711,5.641 -8.187,9.721 -13.427,12.243 -5.24,2.516 -12.772,4.075 -22.598,4.683 v 6.379 l 84.43,10.936 C -1.878,28.56 0,12.981 0,0" style="fill:currentColor;fill-opacity:1;fill-rule:nonzero;stroke:none" id="path60" />
        </g>
        <g id="g62" transform="translate(2392.9282,3800.303)">
          <path d="m 0,0 c -43.123,13.658 -67.941,33.847 -82.686,54.278 -38.517,53.37 -16.564,119.846 -49.563,131.291 -10.603,3.678 -23.975,0.666 -30.931,-6.254 -22.319,-22.203 10.392,-95.624 61.833,-137.097 C -64.735,12.7 -23.635,3.398 0,0" style="fill:currentColor;fill-opacity:1;fill-rule:nonzero;stroke:none" id="path64" />
        </g>
        <g id="g66" transform="translate(2394.6243,3790.5115)">
          <path d="m 0,0 c -43.741,-11.846 -69.512,-30.98 -85.232,-50.776 -41.065,-51.71 -22.355,-119.034 -55.875,-129.092 -10.771,-3.232 -23.984,0.335 -30.597,7.537 -21.221,23.112 15.016,95.094 68.413,134.381 C -65.285,-9.988 -23.776,-2.409 0,0" style="fill:currentColor;fill-opacity:1;fill-rule:nonzero;stroke:none" id="path68" />
        </g>
        <g id="g70" transform="translate(2172.2432,3957.2642)">
          <path d="m 0,0 c -34.316,3.557 -83.154,-53.35 -70.498,-91.411 8.669,-26.069 44.481,-38.169 73.974,-48.133 21.715,-7.337 41.109,-9.993 73.92,-14.236 23.393,-3.025 43.001,-4.543 56.843,-5.366 -12.693,1.107 -32.511,2.896 -56.843,5.366 -38.626,3.921 -53.112,5.95 -76.587,7.251 -46.92,2.602 -70.393,3.685 -77.948,-5.018 -22.129,-25.494 30.678,-121.013 79.079,-120.283 32.488,0.49 39.231,43.449 97.925,78.389 38.494,22.915 77.835,29.543 103.626,31.729 -29.671,2.052 -69.444,9.36 -104.297,34.217 C 31.379,-79.129 37.825,-3.921 0,0" style="fill:currentColor;fill-opacity:1;fill-rule:nonzero;stroke:none" id="path72" />
        </g>
        <g id="g74" transform="translate(4409.4995,3800.303)">
          <path d="m 0,0 c 43.123,13.658 67.941,33.847 82.686,54.278 38.517,53.37 16.564,119.846 49.563,131.291 10.603,3.678 23.975,0.666 30.931,-6.254 C 185.499,157.112 152.787,83.691 101.347,42.218 64.734,12.7 23.635,3.398 0,0" style="fill:currentColor;fill-opacity:1;fill-rule:nonzero;stroke:none" id="path76" />
        </g>
        <g id="g78" transform="translate(4407.8032,3790.5115)">
          <path d="m 0,0 c 43.741,-11.846 69.513,-30.98 85.232,-50.776 41.064,-51.71 22.355,-119.034 55.875,-129.092 10.771,-3.232 23.984,0.335 30.597,7.537 21.221,23.112 -15.016,95.094 -68.413,134.381 C 65.285,-9.988 23.776,-2.409 0,0" style="fill:currentColor;fill-opacity:1;fill-rule:nonzero;stroke:none" id="path80" />
        </g>
        <g id="g82" transform="translate(4630.1846,3957.2642)">
          <path d="m 0,0 c 34.316,3.557 83.154,-53.35 70.498,-91.411 -8.669,-26.069 -44.481,-38.169 -73.974,-48.133 -21.716,-7.337 -41.109,-9.993 -73.92,-14.236 -23.394,-3.025 -43.001,-4.543 -56.843,-5.366 12.693,1.107 32.511,2.896 56.843,5.366 38.626,3.921 53.112,5.95 76.587,7.251 46.919,2.602 70.393,3.685 77.948,-5.018 22.129,-25.494 -30.678,-121.013 -79.079,-120.283 -32.488,0.49 -39.231,43.449 -97.925,78.389 -38.494,22.915 -77.835,29.543 -103.626,31.729 29.671,2.052 69.443,9.36 104.297,34.217 C -31.379,-79.129 -37.825,-3.921 0,0" style="fill:currentColor;fill-opacity:1;fill-rule:nonzero;stroke:none" id="path84" />
        </g>
        <g id="g86" transform="translate(2729.0217,1951.504)">
          <path d="m 0,0 0.982,125.46 7.533,-0.304 C 17.685,93.229 28.602,68.081 41.265,49.698 65.063,15.756 94.975,-1.215 131,-1.215 c 25.108,0 45.85,7.792 62.224,23.391 16.375,15.594 24.563,35.339 24.563,59.236 0,10.328 -1.801,20.854 -5.404,31.593 -3.602,10.733 -8.46,19.943 -14.574,27.644 -6.331,7.898 -15.228,15.492 -26.691,22.783 -11.462,7.29 -28.983,16.505 -52.563,27.643 -20.742,9.721 -36.626,17.923 -47.651,24.606 -11.026,6.683 -19.923,13.468 -26.692,20.353 -18.776,19.032 -28.165,42.225 -28.165,69.565 0,16.809 3.657,33.005 10.972,48.604 7.314,15.594 17.521,28.96 30.621,40.099 23.143,19.846 50.544,29.77 82.202,29.77 10.262,0 19.759,-0.962 28.492,-2.886 8.734,-1.929 20.415,-5.726 35.043,-11.392 10.916,-4.055 18.34,-6.637 22.27,-7.746 3.93,-1.114 7.423,-1.671 10.48,-1.671 7.642,0 12.772,5.164 15.392,15.493 h 7.533 l 2.292,-120.599 h -7.532 c -5.884,19.239 -10.96,33.972 -15.207,44.199 -4.247,10.222 -9.312,19.695 -15.196,28.403 -10.687,15.797 -22.456,27.492 -35.315,35.086 -12.86,7.595 -27.674,11.392 -44.453,11.392 -24.421,0 -43.699,-7.706 -57.869,-23.112 -5.884,-6.284 -10.524,-13.686 -13.897,-22.196 -3.373,-8.516 -5.065,-17.027 -5.065,-25.543 0,-33.856 23.438,-61.125 70.314,-81.802 l 46.101,-20.677 c 35.534,-15.609 61.155,-32.838 76.853,-51.692 17.87,-21.083 26.811,-45.612 26.811,-73.59 0,-18.586 -4.039,-36.367 -12.117,-53.338 -11.354,-23.634 -28.384,-41.871 -51.09,-54.7 -22.707,-12.825 -49.453,-19.244 -80.237,-19.244 -28.165,0 -55.239,5.164 -81.22,15.492 C 48.688,9.417 40.61,12.556 37.99,13.366 35.37,14.171 32.422,14.581 29.147,14.581 18.667,14.581 11.462,9.721 7.532,0 Z" style="fill:currentColor;fill-opacity:1;fill-rule:nonzero;stroke:none" id="path88" />
        </g>
        <g id="g90" transform="translate(3150.5132,2377.0947)">
          <path d="m 0,0 v -208.046 c 7.642,8.698 14.41,15.477 20.305,20.332 5.895,4.856 12.991,9.104 21.287,12.749 15.939,7.28 34.06,10.926 54.365,10.926 25.763,0 47.051,-4.754 63.863,-14.257 12.008,-7.084 20.25,-15.731 24.726,-25.948 4.475,-10.212 6.714,-25.532 6.714,-45.961 v -88.602 l 0.327,-23.062 c 0,-13.756 0.873,-23.816 2.62,-30.19 1.747,-6.374 5.131,-11.685 10.152,-15.928 6.114,-5.463 17.358,-9.609 33.733,-12.439 v -6.38 H 93.446 v 6.38 c 11.55,1.412 19.77,3.134 24.672,5.154 4.902,2.025 9.312,5.463 13.231,10.318 3.919,5.058 6.648,11.933 8.166,20.631 1.528,8.693 2.292,21.543 2.292,38.534 v 96.176 c 0,14.561 -1.201,26.089 -3.602,34.585 -2.391,8.501 -6.419,15.877 -12.085,22.155 -11.102,11.934 -26.789,17.898 -47.051,17.898 C 26.353,-174.975 0,-213.611 0,-290.876 v -48.543 l 0.327,-22.45 c 0,-13.756 0.874,-23.821 2.621,-30.195 1.735,-6.369 5.108,-11.68 10.119,-15.923 6.103,-5.463 17.314,-9.609 33.656,-12.439 v -6.38 H -97.922 v 6.38 c 13.1,1.615 22.488,3.888 28.165,6.819 5.676,2.937 10.261,7.939 13.755,15.017 2.401,4.653 4.093,11.68 5.076,21.082 0.982,9.402 1.474,23.001 1.474,40.797 v 238.105 c 0,20.627 -0.546,35.182 -1.638,43.678 -1.092,8.491 -3.493,15.366 -7.205,20.626 -3.712,5.661 -8.187,9.706 -13.427,12.131 -5.24,2.425 -12.773,3.944 -22.598,4.552 v 6.683 z" style="fill:currentColor;fill-opacity:1;fill-rule:nonzero;stroke:none" id="path92" />
        </g>
        <g id="g94" transform="translate(3474.7373,2081.9709)">
          <path d="m 0,0 c 0,-35.198 8.515,-65.033 25.545,-89.503 19.213,-27.314 42.684,-40.964 70.412,-40.964 11.79,0 23.253,3.033 34.388,9.098 11.135,6.066 20.741,14.561 28.82,25.492 8.515,11.321 15.392,25.533 20.632,42.625 5.24,17.092 7.86,33.628 7.86,49.612 0,16.586 -2.784,33.324 -8.351,50.214 -5.568,16.885 -13.046,31.4 -22.434,43.541 -17.903,22.854 -39.846,34.286 -65.827,34.286 -24.672,0 -45.959,-12.039 -63.863,-36.109 C 9.061,64.218 0,34.792 0,0 m -59.605,-3.488 c 0,32.807 13.1,62.071 39.3,87.791 31.877,31.183 69.976,46.781 114.297,46.781 44.322,0 82.312,-15.598 113.97,-46.781 26.2,-25.927 39.3,-55.287 39.3,-88.095 0,-32.403 -12.445,-61.262 -37.335,-86.576 -30.567,-31.188 -69.211,-46.782 -115.935,-46.782 -46.723,0 -85.477,15.594 -116.262,46.782 -12.008,12.151 -21.233,25.714 -27.674,40.706 -6.44,14.986 -9.661,30.377 -9.661,46.174" style="fill:currentColor;fill-opacity:1;fill-rule:nonzero;stroke:none" id="path96" />
        </g>
        <g id="g98" transform="translate(3851.3613,2076.6599)">
          <path d="m 0,0 c 0,-27.948 1.31,-49.014 3.919,-63.185 2.609,-14.177 7.282,-25.624 14.017,-34.327 6.092,-7.701 14.083,-13.873 23.984,-18.531 9.891,-4.663 19.945,-6.986 30.174,-6.986 23.045,0 43.164,10.125 60.347,30.377 10.436,12.151 18.482,26.53 24.136,43.136 5.655,16.602 8.483,33.917 8.483,51.946 0,17.417 -2.664,34.479 -7.991,51.186 -5.339,16.708 -12.784,31.031 -22.347,42.985 -16.309,20.657 -36.21,30.985 -59.692,30.985 -11.528,0 -22.401,-2.633 -32.619,-7.898 C 32.182,114.417 24.028,107.233 17.936,98.12 11.201,88.399 6.528,76.293 3.919,61.818 1.31,47.338 0,26.732 0,0 m 0,-100.854 0.328,-55.773 v -20.91 c 0,-13.736 0.873,-23.791 2.62,-30.16 1.746,-6.359 5.13,-11.766 10.152,-16.216 6.113,-5.453 17.358,-9.493 33.733,-12.121 v -6.379 H -97.922 v 6.379 c 13.1,1.625 22.488,3.848 28.165,6.678 5.676,2.835 10.261,7.792 13.755,14.87 2.401,4.658 4.094,11.741 5.076,21.244 0.982,9.518 1.474,23.077 1.474,40.675 V 57.161 c 0,22.864 -3.876,39.156 -11.626,48.867 -7.751,9.711 -20.797,14.571 -39.137,14.571 v 7.595 l 95.63,12.454 c 2.402,-9.721 3.603,-18.636 3.603,-26.732 v -5.772 c 16.134,10.126 31.276,17.361 45.457,21.72 14.169,4.355 29.54,6.532 46.111,6.532 33.133,0 61.472,-9.22 85.019,-27.644 14.825,-11.746 26.277,-26.429 34.333,-44.048 8.067,-17.619 12.107,-37.06 12.107,-58.325 0,-22.074 -4.313,-42.635 -12.926,-61.666 -8.602,-19.037 -20.872,-34.737 -36.778,-47.086 -24.857,-19.644 -54.397,-29.466 -88.621,-29.466 -16.353,0 -30.469,2.233 -42.357,6.683 -11.877,4.45 -25.665,12.556 -41.363,24.302" style="fill:currentColor;fill-opacity:1;fill-rule:nonzero;stroke:none" id="path100" />
        </g>
        <g id="g102" transform="translate(2585.811,2098.2192)">
          <path d="m 0,0 c -43.123,13.658 -67.941,33.847 -82.686,54.278 -38.517,53.37 -16.564,119.845 -49.562,131.291 -10.604,3.678 -23.976,0.666 -30.931,-6.254 -22.32,-22.203 10.392,-95.624 61.832,-137.097 C -64.735,12.7 -23.635,3.398 0,0" style="fill:currentColor;fill-opacity:1;fill-rule:nonzero;stroke:none" id="path104" />
        </g>
        <g id="g106" transform="translate(2587.5073,2088.4275)">
          <path d="m 0,0 c -43.741,-11.846 -69.512,-30.98 -85.232,-50.776 -41.065,-51.71 -22.355,-119.033 -55.875,-129.092 -10.771,-3.232 -23.984,0.335 -30.597,7.537 -21.221,23.112 15.016,95.095 68.413,134.381 C -65.285,-9.988 -23.776,-2.409 0,0" style="fill:currentColor;fill-opacity:1;fill-rule:nonzero;stroke:none" id="path108" />
        </g>
        <g id="g110" transform="translate(2365.1262,2255.1802)">
          <path d="m 0,0 c -34.316,3.557 -83.154,-53.349 -70.498,-91.411 8.669,-26.069 44.481,-38.169 73.974,-48.133 21.715,-7.337 41.109,-9.993 73.92,-14.236 23.393,-3.024 43.001,-4.543 56.843,-5.366 -12.693,1.107 -32.511,2.897 -56.843,5.366 -38.627,3.921 -53.112,5.95 -76.587,7.251 -46.92,2.602 -70.393,3.685 -77.948,-5.018 -22.129,-25.494 30.678,-121.013 79.079,-120.283 32.488,0.49 39.231,43.449 97.925,78.389 38.494,22.915 77.835,29.543 103.625,31.729 -29.67,2.052 -69.443,9.36 -104.296,34.217 C 31.379,-79.129 37.824,-3.921 0,0" style="fill:currentColor;fill-opacity:1;fill-rule:nonzero;stroke:none" id="path112" />
        </g>
        <g id="g114" transform="translate(4216.6162,2098.2192)">
          <path d="m 0,0 c 43.123,13.658 67.941,33.847 82.686,54.278 38.517,53.37 16.564,119.845 49.563,131.291 10.603,3.678 23.976,0.666 30.931,-6.254 C 185.499,157.112 152.788,83.691 101.347,42.218 64.735,12.7 23.635,3.398 0,0" style="fill:currentColor;fill-opacity:1;fill-rule:nonzero;stroke:none" id="path116" />
        </g>
        <g id="g118" transform="translate(4214.9204,2088.4275)">
          <path d="m 0,0 c 43.741,-11.846 69.512,-30.98 85.232,-50.776 41.064,-51.71 22.355,-119.033 55.875,-129.092 10.771,-3.232 23.984,0.335 30.597,7.537 21.221,23.112 -15.016,95.095 -68.413,134.381 C 65.285,-9.988 23.776,-2.409 0,0" style="fill:currentColor;fill-opacity:1;fill-rule:nonzero;stroke:none" id="path120" />
        </g>
        <g id="g122" transform="translate(4437.3013,2255.1802)">
          <path d="m 0,0 c 34.316,3.557 83.154,-53.349 70.498,-91.411 -8.669,-26.069 -44.481,-38.169 -73.974,-48.133 -21.715,-7.337 -41.109,-9.993 -73.92,-14.236 -23.393,-3.024 -43.001,-4.543 -56.843,-5.366 12.694,1.107 32.511,2.897 56.843,5.366 38.626,3.921 53.112,5.95 76.587,7.251 46.92,2.602 70.393,3.685 77.948,-5.018 22.129,-25.494 -30.678,-121.013 -79.078,-120.283 -32.489,0.49 -39.231,43.449 -97.925,78.389 -38.494,22.915 -77.836,29.543 -103.627,31.729 29.671,2.052 69.444,9.36 104.297,34.217 C -31.378,-79.129 -37.825,-3.921 0,0" style="fill:currentColor;fill-opacity:1;fill-rule:nonzero;stroke:none" id="path124" />
        </g>
        <g id="g126" transform="translate(3061.5596,4592.1655)">
          <path d="m 0,0 c 29.99,-32.876 27.825,-78.06 12.75,-106.692 -30.363,-57.671 -126.538,-73.725 -192.288,-50.191 -85.047,30.441 -118.669,126.933 -111.219,197.944 11.218,106.918 119.359,192.373 233.41,200.638 134.981,9.782 237.569,-91.5 273.02,-179.838 44.903,-111.892 -4.691,-235.942 -61.408,-304.493 -273.186,-330.187 -1265.718,-42.506 -1346.622,-18.371 -580.687,173.225 -823.746,423.997 -1112.232,302.064 -176.307,-74.519 -282.744,-253.552 -278.268,-257.544 4.428,-3.949 115.746,164.836 293.024,232.658 297.417,113.785 535.157,-148.412 1071.173,-321.094 464.797,-149.738 1178.393,-239.577 1411.827,42.378 66.592,80.435 113.302,214.307 67.552,333.936 -40.276,105.314 -161.795,224.655 -321,211.37 -136.176,-11.364 -258.801,-116.328 -269.625,-242.046 -7.137,-82.902 32.435,-196.97 135.173,-233.232 83.272,-29.39 200.17,-4.887 237.83,66.112 C 60.003,-94.53 68.717,-38.63 30.853,1.244 1.941,31.69 -45.694,43.914 -92.559,33.595 -86.814,34.036 -34.002,37.274 0,0" style="fill:currentColor;fill-opacity:1;fill-rule:nonzero;stroke:none" id="path128" />
        </g>
        <g id="g130" transform="translate(3740.8682,4592.1655)">
          <path d="m 0,0 c -29.99,-32.876 -27.825,-78.06 -12.75,-106.692 30.363,-57.671 126.538,-73.725 192.287,-50.191 85.048,30.441 118.67,126.933 111.22,197.944 -11.219,106.918 -119.359,192.373 -233.411,200.638 -134.98,9.782 -237.568,-91.5 -273.019,-179.838 -44.903,-111.892 4.691,-235.942 61.408,-304.493 273.185,-330.187 1265.718,-42.506 1346.621,-18.371 580.688,173.225 823.747,423.997 1112.232,302.064 176.308,-74.519 282.745,-253.552 278.269,-257.544 -4.428,-3.949 -115.747,164.836 -293.024,232.658 C 1992.416,129.96 1754.676,-132.237 1218.66,-304.919 753.863,-454.657 40.267,-544.496 -193.167,-262.541 c -66.592,80.435 -113.302,214.307 -67.552,333.936 40.276,105.314 161.794,224.655 321,211.37 136.176,-11.364 258.801,-116.328 269.625,-242.046 7.137,-82.902 -32.435,-196.97 -135.173,-233.232 -83.272,-29.39 -200.17,-4.887 -237.83,66.112 C -60.003,-94.53 -68.717,-38.63 -30.853,1.244 -1.941,31.69 45.694,43.914 92.559,33.595 86.814,34.036 34.002,37.274 0,0" style="fill:currentColor;fill-opacity:1;fill-rule:nonzero;stroke:none" id="path132" />
        </g>
        <g id="g134" transform="translate(3061.5596,1275.551)">
          <path d="m 0,0 c 29.99,32.876 27.825,78.06 12.75,106.692 -30.363,57.671 -126.538,73.725 -192.288,50.191 -85.047,-30.441 -118.669,-126.934 -111.219,-197.944 11.218,-106.918 119.359,-192.373 233.41,-200.638 134.981,-9.782 237.569,91.5 273.02,179.838 44.903,111.892 -4.691,235.942 -61.408,304.493 -273.186,330.187 -1265.718,42.506 -1346.622,18.371 -580.687,-173.225 -823.746,-423.997 -1112.232,-302.064 -176.307,74.519 -282.744,253.552 -278.268,257.544 4.428,3.949 115.746,-164.836 293.024,-232.658 297.417,-113.785 535.157,148.412 1071.173,321.094 464.797,149.738 1178.393,239.577 1411.827,-42.379 66.592,-80.433 113.302,-214.306 67.552,-333.935 -40.276,-105.314 -161.795,-224.655 -321,-211.37 -136.176,11.364 -258.801,116.328 -269.625,242.046 -7.137,82.902 32.435,196.97 135.173,233.232 83.272,29.39 200.17,4.887 237.83,-66.112 C 60.003,94.53 68.717,38.63 30.853,-1.244 1.941,-31.69 -45.694,-43.914 -92.559,-33.595 -86.814,-34.036 -34.002,-37.274 0,0" style="fill:currentColor;fill-opacity:1;fill-rule:nonzero;stroke:none" id="path136" />
        </g>
        <g id="g138" transform="translate(3740.8682,1275.551)">
          <path d="m 0,0 c -29.99,32.876 -27.825,78.06 -12.75,106.692 30.363,57.671 126.538,73.725 192.287,50.191 85.048,-30.441 118.67,-126.934 111.22,-197.944 -11.219,-106.918 -119.359,-192.373 -233.411,-200.638 -134.98,-9.782 -237.568,91.5 -273.019,179.838 -44.903,111.892 4.691,235.942 61.408,304.493 273.185,330.187 1265.718,42.506 1346.621,18.371 580.688,-173.225 823.747,-423.997 1112.232,-302.064 176.308,74.519 282.745,253.552 278.269,257.544 C 2578.429,220.432 2467.11,51.647 2289.833,-16.175 1992.416,-129.96 1754.676,132.237 1218.66,304.919 753.863,454.657 40.267,544.496 -193.167,262.54 -259.759,182.107 -306.469,48.234 -260.719,-71.395 c 40.276,-105.314 161.794,-224.655 321,-211.37 136.176,11.364 258.801,116.328 269.625,242.046 7.137,82.902 -32.435,196.97 -135.173,233.232 -83.272,29.39 -200.17,4.887 -237.83,-66.112 C -60.003,94.53 -68.717,38.63 -30.853,-1.244 -1.941,-31.69 45.694,-43.914 92.559,-33.595 86.814,-34.036 34.002,-37.274 0,0" style="fill:currentColor;fill-opacity:1;fill-rule:nonzero;stroke:none" id="path140" />
        </g>
        <g id="g142" transform="translate(4983.0254,3402.3613)">
          <path d="m 0,0 c 21.135,1.745 39.618,-0.417 59.865,-5.66 13.335,-3.453 30.071,-12.808 43.644,-9.468 4.574,1.126 9.165,5.854 13.493,7.694 8.233,3.5 30.196,6.284 39.563,6.533 25.087,0.667 15.588,-28.087 15.13,-42.412 -1.466,-45.937 -3.537,-91.588 -5.812,-137.378 -0.584,-11.768 3.553,-38.159 -7.923,-45.183 -5.332,-3.263 -33.389,-4.736 -40.764,-4.097 -12.363,1.072 -12.915,8.208 -15.661,17.809 -13.367,46.742 -21.94,150.85 -96.14,146.544 -40.048,-2.325 -70.282,-33.793 -81.044,-67.637 -32.426,-101.97 78.847,-182.764 143.529,-248.826 45.377,-46.345 88.934,-98.357 111.165,-158.25 44.033,-118.626 23.402,-299.46 -113.835,-357.846 -74.773,-31.812 -134.591,-8.896 -205.344,17.661 -9.739,0.515 -18.3,-6.982 -27.367,-8.032 -6.657,-0.77 -37.354,1.222 -42.902,3.406 -2.566,1.011 -4.945,2.593 -6.489,4.754 -5.737,8.029 -1.078,35.908 -0.72,46.368 1.08,31.534 2.815,62.849 4.36,94.279 1.276,25.98 -0.128,55.22 3.001,80.722 1.133,9.232 5.303,17 15.744,19.069 4.779,0.947 31.78,-0.046 37.056,-0.82 10.436,-1.529 11.688,-12.089 13.424,-19.881 13.627,-61.17 18.366,-165.481 101.884,-183.015 84.675,-17.776 124.933,59.264 126.698,125.543 5.222,195.998 -270.902,266.487 -281.944,464.592 C -203.426,-145.202 -127.41,-10.521 0,0" style="fill:currentColor;fill-opacity:1;fill-rule:nonzero;stroke:none" id="path144" />
        </g>
        <g id="g146" transform="translate(5503.5239,2796.6924)">
          <path d="M 0,0 -50.845,319.188 -122.064,2.694 Z m 210.325,-356.566 c -2.728,-2.369 -11.037,-1.842 -14.879,-1.681 -61.593,2.585 -126.564,16.762 -188.756,18.979 -12.048,1.284 -17.38,6.82 -18.37,17.98 -0.563,6.348 1.273,32.139 3.675,37.108 5.8,12.003 23.065,15.516 31.874,24.331 8.31,8.315 9.508,16.853 10.857,27.659 l -21.664,148.667 -156.856,5.337 -32.137,-135.295 c 0.09,-27.421 37.07,-42.719 41.601,-62.551 1.607,-7.033 1.745,-36.108 -1.661,-41.713 -3.16,-5.201 -9.663,-7.062 -15.791,-6.891 -41.063,1.14 -84.782,10.31 -126.305,10.983 -10.111,1.759 -23.572,2.29 -25.517,14.061 -1.402,8.487 -0.385,33.882 2.472,41.982 3.49,9.897 18.719,14.514 26.344,21.374 9.444,8.496 15.306,21.369 20.083,32.566 59.963,241.668 116.107,484.175 170.245,727.074 0.102,19.297 -4.795,38.596 -5.615,57.762 -0.351,8.222 -1.151,12.877 5.879,18.767 l 105.488,65.184 c 9.956,4.666 13.93,-0.284 16.117,-8.879 l 134.447,-898.984 c 2.846,-12.402 6.144,-23.354 14.847,-33.379 8.155,-9.395 25.001,-18.677 27.709,-30.883 1.751,-7.893 1.892,-44.362 -4.087,-49.558" style="fill:currentColor;fill-opacity:1;fill-rule:nonzero;stroke:none" id="path148" />
        </g>
        <g id="g150" transform="translate(6118.1772,2391.2869)">
          <path d="m 0,0 c -53.161,4.681 -106.244,12.466 -159.319,18.665 -69.085,8.068 -138.878,14.315 -207.391,24.613 -14.066,8.593 -9.998,20.314 -9.58,32.763 0.308,9.179 -1.642,17.214 2.596,25.878 5.298,10.836 20.073,15.595 27.857,25.36 19.053,23.906 12.289,92.801 13.021,123.962 4.748,202.405 8.234,404.847 11.624,607.426 0.692,41.348 6.445,91.462 3.018,131.983 -0.722,8.539 -3.683,18.705 -8.019,26.239 -7.378,12.821 -22.425,16.236 -25.103,31.953 -1.503,8.821 -1.505,40.824 2.754,47.977 4.091,6.872 11.099,7.086 18.427,8.51 53.623,10.418 110.271,14.86 164.04,25.604 7.183,-0.57 9.641,-4.963 10.473,-11.153 2.22,-16.532 0.935,-45.055 -8.315,-59.403 -12.814,-19.876 -22.732,-24.875 -26.25,-51.093 -5.466,-40.749 -0.987,-90 -1.581,-131.872 -3.433,-242.24 -4.95,-484.979 -10.291,-727.184 -0.302,-13.689 0.334,-27.445 0.073,-41.122 l 57.309,-5.449 c 76.301,0.905 80.677,108.149 89.681,158.08 3.906,21.652 0.393,25.018 26.626,23.781 6.827,-0.322 20.979,-1.102 24.612,-6.82 C -2.936,277.436 0,268.333 0,267.348 Z" style="fill:currentColor;fill-opacity:1;fill-rule:nonzero;stroke:none" id="path152" />
        </g>
        <g id="g154" transform="translate(4374.4722,2979.8633)">
          <path d="m 0,0 c 57.896,1.872 107.9,17.123 132.484,69.122 20.546,43.455 28.496,150.716 5.816,193.069 -22.976,42.904 -80.305,42.895 -125.229,42.195 z m 116.25,-35.039 c 0.148,-1.634 1.996,-2.27 3.344,-2.946 57.04,-28.588 85.177,-35.276 108.566,-97.357 24.082,-63.919 33.439,-140.325 51.544,-206.777 5.277,-19.369 9.416,-37.369 26.215,-51.125 5.636,-4.615 20.71,-11.135 22.169,-17.164 1.755,-7.258 0.257,-30.703 -1.221,-38.698 -2.214,-11.977 -20.983,-9.146 -31.223,-8.882 -9.937,0.256 -21.894,2.248 -31.923,2.735 -28.199,1.368 -59.43,1.091 -87.175,4.05 -6.887,0.735 -14.769,4.208 -18.785,9.526 -27.101,87.233 -48.361,176.536 -73.595,264.455 -7.741,26.972 -18.924,82.432 -41.334,100.413 -11.849,9.506 -30.19,14.338 -45.745,13.508 -0.326,-9.634 0.443,-19.381 0.068,-29.02 -2.658,-68.209 -6.215,-136.402 -8.719,-204.72 -0.813,-22.203 -8.456,-55.562 5.16,-74.57 10.027,-13.996 34.138,-17.993 34.132,-37.164 -0.002,-5.219 -0.833,-19.308 -1.657,-24.162 -2.404,-14.157 -22.835,-9.004 -32.549,-8.778 -63.717,1.48 -131.405,2.513 -194.834,6.623 -9.627,0.623 -23.219,1.507 -24.013,12.877 -0.247,3.537 1.377,24.585 2.234,27.624 3.684,13.054 29.696,18.384 39.149,32.402 12.345,18.306 8.483,72.526 9.513,96.237 7.013,161.52 13.975,323.217 18.89,484.863 0.514,16.91 5.714,46.475 -0.263,61.6 -8.32,21.057 -34.239,20.805 -39.247,35.005 -1.836,5.205 -1.911,22.718 -1.151,28.627 1.311,10.19 9.711,13.173 19.669,14.094 37.567,3.475 78.218,3.454 116.214,5.418 107.361,5.546 264.845,25.169 338.425,-66.157 C 316.68,249.625 320.25,178.519 302.966,122.559 277.779,41.009 203.142,-14.847 116.25,-35.039" style="fill:currentColor;fill-opacity:1;fill-rule:nonzero;stroke:none" id="path156" />
        </g>
        <g id="g158" transform="translate(3783.5747,2639.5764)">
          <path d="m 0,0 c 34.576,-31.283 98.564,-29.904 135.965,-3.729 52.131,36.486 43.183,104.009 45.103,157.527 5.004,139.492 10.775,279.198 13.078,418.868 0.296,17.983 6.567,33.48 -7.917,49.118 -8.626,9.314 -30.426,15.235 -34.518,24.574 -1.945,4.437 -1.887,28.629 0.004,32.978 2.249,5.175 10.028,7.811 15.602,8.436 15.209,1.705 31.411,0.581 46.565,1.285 33.917,1.574 67.683,3.077 101.717,4.04 9.749,0.276 32.742,6.401 34.77,-7.814 0.582,-4.085 -0.465,-25.699 -1.8,-29.48 -4.265,-12.076 -25.447,-18.59 -34.539,-27.247 C 295.427,610.843 301.331,580.56 300.341,557.74 294.799,429.922 290.678,301.841 285.69,174.001 283.036,105.967 291.257,38.584 244.212,-19.21 c -94.28,-115.819 -371.128,-96.813 -431.823,42.628 -18.877,43.368 -12.222,78.815 -11.91,123.535 0.984,141.1 3.241,282.003 5.813,422.908 0.44,24.131 1.702,38.473 -21.972,52.475 -7.36,4.353 -22.203,8.624 -25.248,17.004 -1.519,4.181 -1.55,29.649 0.277,33.293 2.391,4.771 13.321,6.688 18.496,7.099 47.311,3.76 104.207,0.402 152.686,1.244 24.389,0.423 49.595,2.327 73.987,2.804 22.592,0.442 29.258,0.303 28.379,-22.266 -0.13,-3.343 -1.446,-15.469 -2.536,-17.849 -4.209,-9.196 -21.73,-15.092 -29.892,-20.78 -12.521,-8.725 -17.319,-19.787 -18.47,-34.06 -3.074,-38.11 -0.411,-81.268 -1.337,-119.977 C -21.927,360.695 -24.916,252.585 -26.604,144.259 -27.324,97.998 -39.562,35.795 0,0" style="fill:currentColor;fill-opacity:1;fill-rule:nonzero;stroke:none" id="path160" />
        </g>
        <g id="g162" transform="translate(2316.5222,3353.9573)">
          <path d="m 0,0 c 4.064,0.68 8.577,0.401 12.721,0.302 71.266,-1.685 144.847,-12.27 216.533,-13.437 6.761,-0.974 12.652,-2.591 14.556,-9.405 1.416,-5.069 1.53,-28.934 -0.41,-33.362 -6.062,-13.84 -32.702,-13.787 -40.049,-36.955 -4.739,-14.942 0.058,-44.432 0.521,-60.979 3.81,-136.138 9.134,-272.114 14.531,-408.093 2.882,-72.627 -11.19,-190.77 106.723,-182.536 90.493,6.319 97.782,82.239 96.709,148.864 -1.919,119.222 -7.988,238.943 -11.744,358.149 -1.267,40.184 1.364,85.827 -2.861,125.299 -1.316,12.301 -8.701,23.354 -19.002,30.874 -9.984,7.287 -27.215,11.822 -28.968,25.676 -0.657,5.197 -1.526,16.431 -1.537,21.576 -0.024,11.175 8.839,14.378 19.733,14.257 13.137,-0.146 28.805,-2.426 42.08,-2.861 39.42,-1.29 85.028,-0.027 123.576,-3.98 4.809,-0.493 11.145,-2.178 13.487,-6.355 2.987,-5.326 2.632,-28.914 0.17,-34.595 -6.261,-14.445 -33.337,-14.71 -41.239,-35.852 -6.063,-16.22 -1.04,-49.884 -0.697,-67.932 2.481,-130.793 6.408,-261.248 8.598,-392.042 0.875,-52.24 7.948,-94.44 -15.671,-144.291 -60.665,-128.041 -300.639,-148.753 -398.36,-49.564 -61.772,62.7 -50.369,134.401 -53.743,212.821 -4.92,114.389 -9.85,228.941 -14.65,343.334 -1.382,32.923 -0.009,68.519 -2.87,101.047 -0.917,10.43 -4.102,20.51 -11.001,28.862 -12.149,14.709 -34.582,17.05 -36.911,38.517 C -10.89,-22.386 -13.354,-2.235 0,0" style="fill:currentColor;fill-opacity:1;fill-rule:nonzero;stroke:none" id="path164" />
        </g>
        <g id="g166" transform="translate(1995.4651,3384.8523)">
          <path d="m 0,0 c 27.237,0.95 56.624,-7.075 81.632,-16.474 12.438,-4.675 38.027,-19.38 49.802,-17.847 4.543,0.592 9.573,3.836 13.807,4.757 8.702,1.89 43.286,0.091 51.23,-3.03 16.281,-6.398 10.857,-34.698 11.565,-48.542 1.943,-37.956 5.104,-76.41 5.933,-114.37 0.151,-6.942 1.137,-33.844 -1.418,-37.856 -4.035,-6.336 -19.779,-4.889 -27.037,-4.681 -5.483,0.157 -14.921,0.794 -20.291,1.396 -10.765,1.206 -12.876,4.217 -16.733,12.774 -23.666,52.514 -36.76,151.728 -116.967,158.26 -72.392,5.896 -89.948,-64.158 -73.742,-116.836 35.029,-113.861 200.934,-200.678 275.34,-302.385 87.158,-119.14 79.645,-288.438 -62.358,-367.054 -70.257,-38.897 -135.918,-32.201 -211.848,-12.288 -10.237,1.613 -16.84,-6.271 -24.885,-9.373 -7.691,-2.965 -34.829,-5.091 -43.434,-4.185 -8.497,0.895 -12.811,4.771 -13.836,12.761 -3.322,25.889 -1.6,55.901 -2.814,82.244 -1.708,37.065 -5.184,74.612 -5.932,111.677 -0.254,12.589 -4.076,37.758 9.216,44.095 8.942,4.263 44.115,4.993 50.434,-3.622 6.72,-9.161 10.815,-40.243 14.328,-52.715 19.435,-68.99 61.739,-162.677 159.564,-125.997 84.114,31.539 81.527,143.65 41.762,206.202 -83.73,131.709 -258.994,186.036 -294.914,354.278 C -173.998,-143.884 -138.631,-4.837 0,0" style="fill:currentColor;fill-opacity:1;fill-rule:nonzero;stroke:none" id="path168" />
        </g>
        <g id="g170" transform="translate(3399.5959,2750.7561)">
          <path d="m 0,0 84.116,-5.267 c -6.411,-88.554 -58.561,-159.742 -151.441,-186.206 -120.205,-34.25 -248.089,14.228 -314.131,110.914 -72.06,105.495 -82.102,284.848 -59.734,405.317 31.72,170.842 160.81,290.241 357.08,242.017 13.832,-3.399 44.259,-15.374 55.699,-15.821 11.084,-0.433 15.986,7.297 23.876,10.172 8.227,2.998 51.893,3.301 59.526,-0.105 5.962,-2.662 7.004,-9.321 7.409,-14.683 1.717,-22.754 -1.367,-46.148 -1.574,-68.69 -0.261,-28.271 2.958,-63.104 0.133,-90.362 -0.976,-9.419 -5.188,-13.036 -15.325,-14.078 -10.794,-1.11 -45.159,-1.067 -53.779,4.037 -10.669,6.318 -22.05,41.267 -28.07,53.446 -26.917,54.459 -74.648,107.876 -147.333,86.252 -61.307,-18.239 -69.682,-114.468 -75.233,-164.618 -11.642,-105.194 -11.102,-230.831 9.164,-334.928 C -238.74,-38.48 -220,-114.495 -152.016,-131.876 -61.325,-155.062 -12.403,-69.357 0,0" style="fill:currentColor;fill-opacity:1;fill-rule:nonzero;stroke:none" id="path172" />
        </g>
        <g id="g174" transform="translate(1354.9609,2798.0393)">
          <path d="M 0,0 -69.732,321.879 -120.611,-2.694 Z m 18.693,-82.34 -153.996,-5.993 -22.78,-144 c 0.491,-32.26 43.116,-41.99 46.176,-70.055 0.732,-6.714 0.97,-29.675 -1.329,-35.101 -3.167,-7.474 -10.898,-8.668 -18.451,-9.835 -34.076,-5.268 -86.131,-11.079 -120.362,-12.342 -11.702,-0.432 -19.67,2.33 -21.132,14.196 -1.079,8.758 -1.216,37.071 0.642,45.195 2.513,10.99 15.679,17.579 22.359,26.415 7.535,9.968 12.326,22.165 15.804,33.838 l 117.56,778.307 c -1.208,20.45 -8.476,42.995 -9.582,63.088 -0.257,4.658 -0.795,9.806 2.847,13.487 34.614,15.75 70.991,28.862 106.867,42.248 9.037,-1.445 11.101,-7.149 13.352,-14.39 63.755,-290.43 126.76,-581.457 201.157,-869.475 4.641,-19.25 40.567,-24.358 44.496,-40.915 2.548,-10.744 6.422,-42.216 -7.973,-45.849 L 25.172,-332.179 c -6.007,0.351 -13.237,2.394 -14.7,8.538 -2.132,8.954 -3.024,31.828 -0.76,40.548 3.623,13.953 21.223,19.887 30.122,29.995 10.302,11.703 10.839,23.23 9.168,37.899 z" style="fill:currentColor;fill-opacity:1;fill-rule:nonzero;stroke:none" id="path176" />
        </g>
        <g id="g178" transform="translate(872.0893,3516.8293)">
          <path d="m 0,0 c 2.479,-2.092 4.415,-7.849 4.806,-11.029 1.108,-9.017 1.227,-35.486 -0.348,-44.127 -2.553,-14.01 -17.473,-20.636 -24.148,-32.838 -4.012,-7.333 -6.83,-17.12 -7.526,-25.349 -3.732,-44.122 1.277,-93.061 1.565,-137.37 0.965,-148.276 2.87,-296.383 4.359,-444.458 1.087,-108.059 0.121,-216.097 2.84,-323.977 19.591,2.085 41.728,1.96 60.721,6.359 75.931,17.588 77.759,124.785 88.591,181.868 0.812,1.428 1.88,2.724 3.304,3.671 3.046,2.028 17.655,3.291 22.428,3.456 14.575,0.505 26.435,2.121 28.399,-14.194 l 4.443,-243.627 -6.806,-1.992 -355.721,-40.514 c -17.711,2.354 -15.157,37.567 -13.732,50.266 3.121,27.792 33.287,38.503 36.95,66.765 4.013,305.072 0.614,611.006 -1.198,916.228 -1.229,28.091 -29.345,43.53 -31.624,70.355 -0.813,9.574 -1.156,29.8 0.18,38.989 1.064,7.321 4.758,12.626 13.6,11.597 C -117.831,19.023 -63.183,14.908 -12.341,4.054 -8.852,3.31 -2.552,2.154 0,0" style="fill:currentColor;fill-opacity:1;fill-rule:nonzero;stroke:none" id="path180" />
        </g>
      </g>
    </g>
  </g>
</svg>